<svg xmlns="http://www.w3.org/2000/svg" viewBox="0 0 713.56 399.64"><defs><style>.a{fill:#231f20;}.b{fill:#959a8f;}.c{fill:#016699;}</style></defs><title>Logo Full</title><polygon class="a" points="135.1 266.21 0.24 399.64 0.24 132.78 135.1 266.21"/><polygon class="b" points="135.1 266.21 269.96 132.78 269.96 399.64 135.1 266.21"/><rect class="a" x="287.27" y="133.15" width="65.97" height="266.12"/><polygon class="b" points="419.21 398.9 419.21 240.82 536.29 399.64 419.21 398.9 419.21 398.9 419.21 398.9"/><polygon class="a" points="536.29 133.15 536.29 293.07 417.6 132.78 536.29 133.15 536.29 133.15"/><path class="b" d="M860.5,610.45H700.65a79.93,79.93,0,0,1,46.94-72.82V422.85h66V537.63A79.94,79.94,0,0,1,860.5,610.45Z" transform="translate(-146.94 -289.71)"/><path class="c" d="M769.34,609.25" transform="translate(-146.94 -289.71)"/><path class="a" d="M860.5,609.25a79.93,79.93,0,1,1-159.85,0Z" transform="translate(-146.94 -289.71)"/><path class="a" d="M149.2,398.64h-2.26V369.22h2.26Z" transform="translate(-146.94 -289.71)"/><path class="a" d="M202,398.64h-2.24l-15.54-25.29-.11,0v25.27h-2.26V369.22h2.26l15.54,25.26.11,0V369.22H202Z" transform="translate(-146.94 -289.71)"/><path class="a" d="M254.37,398.64h-2.24l-15.54-25.29-.11,0v25.27h-2.26V369.22h2.26L252,394.48l.11,0V369.22h2.24Z" transform="translate(-146.94 -289.71)"/><path class="a" d="M306.54,386.34a14,14,0,0,1-2.9,9.21,9.59,9.59,0,0,1-7.79,3.52,9.38,9.38,0,0,1-7.68-3.52,14.11,14.11,0,0,1-2.87-9.21v-4.79a14.25,14.25,0,0,1,2.86-9.22,9.36,9.36,0,0,1,7.67-3.53,9.6,9.6,0,0,1,7.8,3.53,14,14,0,0,1,2.91,9.22Zm-2.24-4.82a12.26,12.26,0,0,0-2.24-7.69,7.44,7.44,0,0,0-6.23-2.91,7.17,7.17,0,0,0-6.09,2.91,12.57,12.57,0,0,0-2.18,7.69v4.84a12.55,12.55,0,0,0,2.19,7.73,7.18,7.18,0,0,0,6.1,2.92,7.4,7.4,0,0,0,6.23-2.91,12.4,12.4,0,0,0,2.22-7.74Z" transform="translate(-146.94 -289.71)"/><path class="a" d="M344.75,393.67l.54,2h.12l.54-2,8.22-24.45h2.44L346.4,398.64h-2.12l-10.2-29.42h2.44Z" transform="translate(-146.94 -289.71)"/><path class="a" d="M399.1,390.44H386.57l-2.82,8.2h-2.33l10.39-29.42h2.12l10.32,29.42h-2.33Zm-11.78-2.16h11.05l-5.45-15.92h-.11Z" transform="translate(-146.94 -289.71)"/><path class="a" d="M449.38,371.28H440v27.36h-2.25V371.28h-9.42v-2.06h21.09Z" transform="translate(-146.94 -289.71)"/><path class="a" d="M481.59,398.64h-2.25V369.22h2.25Z" transform="translate(-146.94 -289.71)"/><path class="a" d="M534.25,386.34a14,14,0,0,1-2.9,9.21,9.57,9.57,0,0,1-7.79,3.52,9.38,9.38,0,0,1-7.68-3.52,14.1,14.1,0,0,1-2.86-9.21v-4.79a14.24,14.24,0,0,1,2.85-9.22,9.37,9.37,0,0,1,7.67-3.53,9.6,9.6,0,0,1,7.8,3.53,14,14,0,0,1,2.91,9.22ZM532,381.52a12.27,12.27,0,0,0-2.25-7.69,7.43,7.43,0,0,0-6.23-2.91,7.18,7.18,0,0,0-6.09,2.91,12.57,12.57,0,0,0-2.18,7.69v4.84a12.55,12.55,0,0,0,2.19,7.73,7.18,7.18,0,0,0,6.1,2.92,7.4,7.4,0,0,0,6.23-2.91,12.4,12.4,0,0,0,2.23-7.74Z" transform="translate(-146.94 -289.71)"/><path class="a" d="M585.33,398.64H583.1l-15.54-25.29-.12,0v25.27h-2.25V369.22h2.25L583,394.48l.11,0V369.22h2.23Z" transform="translate(-146.94 -289.71)"/><path class="a" d="M654.16,396.58h13.53v2.06H651.91V369.22h2.25Z" transform="translate(-146.94 -289.71)"/><path class="a" d="M712.25,390.44H699.72l-2.82,8.2h-2.33L705,369.22h2.13l10.31,29.42h-2.33Zm-11.78-2.16h11l-5.45-15.92H706Z" transform="translate(-146.94 -289.71)"/><path class="a" d="M746.61,398.64V369.22h8a10.3,10.3,0,0,1,6.64,1.93,7,7,0,0,1,2.38,5.82,6.59,6.59,0,0,1-1.2,3.94,6.06,6.06,0,0,1-3.24,2.32,6.54,6.54,0,0,1,4.06,2.53,7.53,7.53,0,0,1,1.56,4.7,7.67,7.67,0,0,1-2.38,6.06,9.15,9.15,0,0,1-6.36,2.12Zm2.24-16.22h6.29a6.82,6.82,0,0,0,4.6-1.41,5.16,5.16,0,0,0,1.62-4.13,5.06,5.06,0,0,0-1.73-4.19,7.79,7.79,0,0,0-5-1.41h-5.75Zm0,2.06v12.1h7.21a6.72,6.72,0,0,0,4.76-1.6,5.82,5.82,0,0,0,1.73-4.48,6.15,6.15,0,0,0-1.57-4.33,5.92,5.92,0,0,0-4.56-1.69Z" transform="translate(-146.94 -289.71)"/><path class="a" d="M811.13,391.42a5.07,5.07,0,0,0-1.67-3.92,14.88,14.88,0,0,0-5.83-2.7,17.89,17.89,0,0,1-6.8-3.15,6.48,6.48,0,0,1-2.31-5.23,6.79,6.79,0,0,1,2.58-5.5,10.16,10.16,0,0,1,6.65-2.12,9.38,9.38,0,0,1,6.82,2.52,8,8,0,0,1,2.51,6.17l-.05.12H811a6.51,6.51,0,0,0-1.94-4.85,7.22,7.22,0,0,0-5.27-1.9,7.67,7.67,0,0,0-5.14,1.58,4.92,4.92,0,0,0-1.86,3.92,4.7,4.7,0,0,0,1.71,3.7,15.37,15.37,0,0,0,5.91,2.62,16.61,16.61,0,0,1,6.71,3.27,7,7,0,0,1,2.31,5.44,6.75,6.75,0,0,1-2.68,5.6,10.85,10.85,0,0,1-6.83,2.08,11.88,11.88,0,0,1-7.15-2.21,7.24,7.24,0,0,1-3-6.46l0-.12h2.07a5.75,5.75,0,0,0,2.39,5.07,9.56,9.56,0,0,0,5.62,1.66,8.38,8.38,0,0,0,5.25-1.54A4.86,4.86,0,0,0,811.13,391.42Z" transform="translate(-146.94 -289.71)"/><path class="a" d="M151.08,290.54l25,57.46,25.12-57.46h3.3V351.3h-2.25V293.88L177,351.3h-1.79l-25.12-57.13V351.3h-2.26V290.54Z" transform="translate(-146.94 -289.71)"/><path class="a" d="M333.68,290.54v41.15q0,9.63-5.6,15t-15.17,5.4q-9.57,0-15.17-5.4t-5.64-14.88V290.54h2.25V331.6q0,8.43,5.08,13.36t13.48,4.92q8.4,0,13.46-4.92t5.05-13.4v-41Z" transform="translate(-146.94 -289.71)"/><path class="a" d="M457.69,336.74a11.52,11.52,0,0,0-1.82-6.58,15.3,15.3,0,0,0-5.73-4.75,61.59,61.59,0,0,0-11.8-4.24,54.83,54.83,0,0,1-11.85-4.38,15.5,15.5,0,0,1-5.79-5.13,13,13,0,0,1-1.84-7.1,12.74,12.74,0,0,1,5.6-10.74q5.6-4.11,14.59-4.11A23.74,23.74,0,0,1,449.56,292a16.91,16.91,0,0,1,9.76,15.67h-2.26a14.35,14.35,0,0,0-5-11.24q-5-4.46-13-4.45t-13,3.57q-4.95,3.57-4.95,9a10.61,10.61,0,0,0,4.3,8.81q4.31,3.33,14.21,5.9t14.5,5.95A13.55,13.55,0,0,1,460,336.65a13.35,13.35,0,0,1-2.6,8.12,16.35,16.35,0,0,1-7.35,5.44,28.41,28.41,0,0,1-10.7,1.92,30.66,30.66,0,0,1-11.87-2.19,16,16,0,0,1-10.57-15.79h2.25a13.58,13.58,0,0,0,5.6,11.6q5.61,4.13,14.59,4.13,8,0,13.16-3.65A11.13,11.13,0,0,0,457.69,336.74Z" transform="translate(-146.94 -289.71)"/><path class="a" d="M586.71,351.3h-2.26V321.17H545.58V351.3h-2.25V290.54h2.25v28.38h38.87V290.54h2.26Z" transform="translate(-146.94 -289.71)"/><path class="a" d="M678.83,351.3h-2.26V290.54h2.26Z" transform="translate(-146.94 -289.71)"/><path class="a" d="M812.53,351.3h-2.26L771,294.38V351.3h-2.3V290.54H771l39.28,56.79V290.54h2.26Z" transform="translate(-146.94 -289.71)"/></svg>