<svg xmlns="http://www.w3.org/2000/svg" viewBox="0 0 281.35 280.19"><defs><style>.cls-1{isolation:isolate;}.cls-2,.cls-28,.cls-4{fill:#fff;}.cls-3{fill:red;}.cls-4{font-size:20.45px;}.cls-28,.cls-4{font-family:Helvetica-Bold, Helvetica;font-weight:700;}.cls-5{fill:none;stroke:#fff;stroke-miterlimit:10;stroke-width:2px;}.cls-6{font-size:11.98px;fill:#fc429b;font-family:Helvetica;}.cls-7{letter-spacing:2.21em;}.cls-10,.cls-11,.cls-12,.cls-13,.cls-14,.cls-15,.cls-16,.cls-17,.cls-18,.cls-19,.cls-20,.cls-21,.cls-22,.cls-23,.cls-24,.cls-25,.cls-26,.cls-7,.cls-8,.cls-9{fill:#000;}.cls-9{letter-spacing:2.41em;}.cls-10{letter-spacing:2.31em;}.cls-11{letter-spacing:2.38em;}.cls-12{letter-spacing:2.34em;}.cls-13{letter-spacing:1.75em;}.cls-14{letter-spacing:-0.07em;}.cls-15{letter-spacing:1.89em;}.cls-16{letter-spacing:1.79em;}.cls-17{letter-spacing:1.79em;}.cls-18{letter-spacing:1.65em;}.cls-19{letter-spacing:1.85em;}.cls-20{letter-spacing:1.82em;}.cls-21{letter-spacing:1.38em;}.cls-22{letter-spacing:1.57em;}.cls-23{letter-spacing:1.48em;}.cls-24{letter-spacing:1.54em;}.cls-25{letter-spacing:1.51em;}.cls-26{letter-spacing:1.51em;}.cls-27{fill:#ff88be;mix-blend-mode:multiply;}.cls-28{font-size:16.5px;}</style></defs><title>Calendar</title><g class="cls-1"><g id="Dashboards"><g id="Calendar"><rect class="cls-2" width="281.35" height="246.7"/><rect class="cls-3" width="281.35" height="43.75"/><text class="cls-4" transform="translate(86.94 28.46)">JUNE 2020</text><polyline class="cls-5" points="249.09 28.45 256.04 21.51 249.09 14.56"/><polyline class="cls-5" points="24.34 28.45 17.39 21.51 24.34 14.56"/><text class="cls-6" transform="translate(20.02 81.92)">1<tspan class="cls-7" x="6.67" y="0">	</tspan><tspan class="cls-8" x="36.48" y="0">2</tspan><tspan class="cls-9" x="43.15" y="0">	</tspan><tspan class="cls-8" x="75.34" y="0">3</tspan><tspan class="cls-10" x="82.01" y="0">	</tspan><tspan class="cls-8" x="113.01" y="0">4</tspan><tspan class="cls-11" x="119.68" y="0">	</tspan><tspan class="cls-8" x="151.48" y="0">5</tspan><tspan class="cls-12" x="158.14" y="0">	</tspan><tspan class="cls-8" x="189.55" y="0">6</tspan><tspan class="cls-12" x="196.21" y="0">	</tspan><tspan class="cls-8" x="227.61" y="0">7</tspan><tspan x="0" y="33.42">8</tspan><tspan class="cls-7" x="6.67" y="33.42">	</tspan><tspan class="cls-8" x="36.48" y="33.42">9</tspan><tspan class="cls-9" x="43.15" y="33.42">	</tspan><tspan class="cls-8" x="75.34" y="33.42">10</tspan><tspan class="cls-13" x="88.67" y="33.42">	</tspan><tspan class="cls-14" x="113.01" y="33.42">1</tspan><tspan class="cls-8" x="118.79" y="33.42">1</tspan><tspan class="cls-15" x="125.46" y="33.42">	</tspan><tspan class="cls-8" x="151.48" y="33.42">12</tspan><tspan class="cls-16" x="164.81" y="33.42">	</tspan><tspan class="cls-8" x="189.55" y="33.42">13</tspan><tspan class="cls-17" x="202.88" y="33.42">	</tspan><tspan class="cls-8" x="227.61" y="33.42">14</tspan><tspan x="0" y="66.83">14</tspan><tspan class="cls-18" x="13.33" y="66.83">	</tspan><tspan class="cls-8" x="36.48" y="66.83">16</tspan><tspan class="cls-19" x="49.81" y="66.83">	</tspan><tspan class="cls-8" x="75.34" y="66.83">17</tspan><tspan class="cls-13" x="88.67" y="66.83">	</tspan><tspan class="cls-8" x="113.01" y="66.83">18</tspan><tspan class="cls-20" x="126.34" y="66.83">	</tspan><tspan class="cls-8" x="151.48" y="66.83">19</tspan><tspan class="cls-17" x="164.81" y="66.83">	</tspan><tspan class="cls-8" x="189.55" y="66.83">20</tspan><tspan class="cls-17" x="202.88" y="66.83">	</tspan><tspan class="cls-8" x="227.61" y="66.83">21</tspan><tspan x="0" y="100.24">22 </tspan><tspan class="cls-21" x="16.66" y="100.24">	</tspan><tspan class="cls-8" x="36.48" y="100.24">23 </tspan><tspan class="cls-22" x="53.14" y="100.24">	</tspan><tspan class="cls-8" x="75.34" y="100.24">24 </tspan><tspan class="cls-23" x="92" y="100.24">	</tspan><tspan class="cls-8" x="113.02" y="100.24">25 </tspan><tspan class="cls-24" x="129.68" y="100.24">	</tspan><tspan class="cls-8" x="151.48" y="100.24">26 </tspan><tspan class="cls-25" x="168.14" y="100.24">	</tspan><tspan class="cls-8" x="189.55" y="100.24">27 </tspan><tspan class="cls-26" x="206.21" y="100.24">	</tspan><tspan class="cls-8" x="227.62" y="100.24">28</tspan><tspan x="0" y="133.66">29 </tspan><tspan class="cls-21" x="16.66" y="133.66">	</tspan><tspan class="cls-8" x="36.48" y="133.66">30 </tspan><tspan class="cls-22" x="53.14" y="133.66">	</tspan><tspan class="cls-8" x="75.34" y="133.66">31</tspan></text><circle class="cls-27" cx="178.39" cy="143.83" r="10.81"/><rect class="cls-3" y="247.6" width="281.35" height="32.59"/><text class="cls-28" transform="translate(94.38 269.86)">CALENDAR</text></g></g></g></svg>