<svg xmlns="http://www.w3.org/2000/svg" viewBox="0 0 671.34 280.19"><defs><style>.cls-1{isolation:isolate;}.cls-16,.cls-2{fill:#fff;}.cls-25,.cls-3{fill:#4d4d4d;}.cls-18,.cls-4,.cls-5,.cls-7{fill:#eb2c3b;}.cls-4{stroke:#eb2c3b;stroke-miterlimit:10;stroke-width:5px;}.cls-5,.cls-7{font-size:28.95px;letter-spacing:0.01em;}.cls-20,.cls-24,.cls-5,.cls-8{font-family:Helvetica;}.cls-19,.cls-21,.cls-6,.cls-8{fill:#333;}.cls-13,.cls-16,.cls-19,.cls-21,.cls-6,.cls-7,.cls-9{font-family:Helvetica-Bold, Helvetica;font-weight:700;}.cls-20,.cls-24,.cls-8{font-weight:400;}.cls-13,.cls-9{font-size:15.59px;}.cls-9{letter-spacing:-0.07em;}.cls-10{letter-spacing:0em;}.cls-11{letter-spacing:-0.04em;}.cls-12{letter-spacing:0em;}.cls-14{letter-spacing:-0.02em;}.cls-15{fill:red;}.cls-16{font-size:16.5px;}.cls-17{letter-spacing:-0.07em;}.cls-18,.cls-25{mix-blend-mode:multiply;}.cls-19{font-size:10.48px;}.cls-21{font-size:10.6px;}.cls-22{letter-spacing:-0.02em;}.cls-23{letter-spacing:-0.07em;}.cls-24{letter-spacing:0em;}</style></defs><title>Current Status</title><g class="cls-1"><g id="Dashboards"><g id="Status_1" data-name="Status 1"><g id="KPI"><rect class="cls-2" width="671.34" height="246.7"/><path class="cls-3" d="M261.16,177a67.57,67.57,0,1,1-67.56-67.57A67.64,67.64,0,0,1,261.16,177Zm-120.68,0a53.12,53.12,0,1,0,53.12-53.13A53.18,53.18,0,0,0,140.48,177Z" transform="translate(-101.24 -59.09)"/><path class="cls-4" d="M246.72,177a53,53,0,0,1-2.1,14.77c4.68,1.14,9.28,2.54,13.84,4.11a67.54,67.54,0,0,0-61.56-86.37V124A53.18,53.18,0,0,1,246.72,177Z" transform="translate(-101.24 -59.09)"/><text class="cls-5" transform="translate(48.81 129.94)">28<tspan class="cls-3" x="33.07" y="0">/</tspan><tspan class="cls-6" x="41.55" y="0">100</tspan></text><path class="cls-3" d="M496.49,177.08a67.57,67.57,0,1,1-67.57-67.57A67.64,67.64,0,0,1,496.49,177.08Zm-120.69,0A53.13,53.13,0,1,0,428.92,124,53.18,53.18,0,0,0,375.8,177.08Z" transform="translate(-101.24 -59.09)"/><path class="cls-4" d="M432.22,109.59v14.48a53.1,53.1,0,0,1,24.27,98.4A131.2,131.2,0,0,0,463,235.41a67.54,67.54,0,0,0-30.74-125.82Z" transform="translate(-101.24 -59.09)"/><path class="cls-3" d="M732.68,177a67.57,67.57,0,1,1-67.57-67.57A67.64,67.64,0,0,1,732.68,177ZM612,177a53.12,53.12,0,1,0,53.12-53.13A53.18,53.18,0,0,0,612,177Z" transform="translate(-101.24 -59.09)"/><path class="cls-4" d="M718.23,177a52.93,52.93,0,0,1-13.94,35.83c3.89,2.86,7.77,5.74,11.57,8.7a67.51,67.51,0,0,0-47.45-112V124A53.18,53.18,0,0,1,718.23,177Z" transform="translate(-101.24 -59.09)"/><text class="cls-5" transform="translate(290.58 127.49)">19<tspan class="cls-3" x="33.07" y="0">/</tspan><tspan class="cls-6" x="41.55" y="0">60</tspan></text><text class="cls-7" transform="translate(535.04 125.57)">1<tspan class="cls-8" x="16.54" y="0">.</tspan><tspan x="25.01" y="0">75</tspan></text><text class="cls-9" transform="translate(32.57 27.43)">T<tspan class="cls-10" x="8.37" y="0">arget</tspan><tspan class="cls-11" x="46.5" y="0"> </tspan><tspan class="cls-12" x="50.26" y="0">Achieved</tspan></text><text class="cls-13" transform="translate(252.89 27.43)">Shift <tspan class="cls-14" x="38.97" y="0">T</tspan><tspan x="48.22" y="0">ime Remainig</tspan></text><text class="cls-13" transform="translate(479.85 27.43)">Reqd. Production Rate</text><text x="-101.24" y="-59.09"/><rect class="cls-15" y="246.7" width="671.34" height="33.49"/><text class="cls-16" transform="translate(267.74 267.55)">CURRENT S<tspan class="cls-17" x="96.26" y="0">TA</tspan><tspan x="115.83" y="0">TUS</tspan></text><rect class="cls-18" x="29.67" y="209.49" width="13.03" height="12.11"/><text class="cls-19" transform="translate(48.79 219.78)">OK <tspan class="cls-20" x="18.63" y="0">parts produced</tspan></text><text class="cls-21" transform="translate(48.79 235.17)"><tspan class="cls-22">T</tspan><tspan x="6.29" y="0">O</tspan><tspan class="cls-23" x="14.54" y="0">T</tspan><tspan x="20.23" y="0">A</tspan><tspan class="cls-22" x="27.89" y="0">L</tspan><tspan x="34.18" y="0"> </tspan><tspan class="cls-24" x="37.12" y="0">target</tspan></text><rect class="cls-25" x="29.67" y="224.76" width="13.03" height="12.11"/><rect class="cls-18" x="253.59" y="207.91" width="13.03" height="12.11"/><text class="cls-19" transform="translate(272.71 218.2)">TIME <tspan class="cls-20" x="27.95" y="0">remaining</tspan></text><text class="cls-21" transform="translate(272.71 233.59)"><tspan class="cls-22">T</tspan><tspan x="6.29" y="0">O</tspan><tspan class="cls-23" x="14.54" y="0">T</tspan><tspan x="20.23" y="0">A</tspan><tspan class="cls-22" x="27.89" y="0">L</tspan><tspan x="34.18" y="0"> </tspan><tspan class="cls-24" x="37.12" y="0">time</tspan></text><rect class="cls-25" x="253.59" y="223.18" width="13.03" height="12.11"/><rect class="cls-18" x="486.64" y="207.91" width="13.03" height="12.11"/><text class="cls-19" transform="translate(505.76 218.2)">OK <tspan class="cls-20" x="18.63" y="0">quantity reqd. / minute</tspan></text></g></g></g></g></svg>