<svg id="Dashboards" xmlns="http://www.w3.org/2000/svg" viewBox="0 0 671.34 290.34"><defs><style>.cls-1,.cls-11,.cls-15,.cls-19{fill:#fff;}.cls-13,.cls-2,.cls-7,.cls-8{fill:none;stroke-miterlimit:10;}.cls-2{stroke:#9ba9b7;}.cls-2,.cls-7,.cls-8{stroke-width:0.63px;}.cls-3{font-size:11.22px;}.cls-10,.cls-3,.cls-6{fill:#4d4d4d;}.cls-11,.cls-15,.cls-3,.cls-6{font-family:Helvetica;}.cls-4{letter-spacing:-0.04em;}.cls-5{letter-spacing:-0.02em;}.cls-6{font-size:10.91px;}.cls-7,.cls-8{stroke:#ccc;}.cls-8{stroke-dasharray:7.46 7.46;}.cls-9{fill:#eb2c3b;}.cls-11,.cls-15{font-size:13.18px;}.cls-12{letter-spacing:-0.02em;}.cls-13{stroke:#fff;}.cls-14{fill:red;}.cls-15{letter-spacing:-0.02em;}.cls-16{letter-spacing:0em;}.cls-17{letter-spacing:-0.02em;}.cls-18{letter-spacing:0em;}.cls-19{font-size:16.5px;font-family:Helvetica-Bold, Helvetica;font-weight:700;letter-spacing:-0.07em;}.cls-20{letter-spacing:0em;}.cls-21{letter-spacing:-0.02em;}</style></defs><title>Avg Machine Efficiency</title><g id="Status_2" data-name="Status 2"><rect class="cls-1" width="671.34" height="246.7"/><path class="cls-2" d="M856,2226.74" transform="translate(-698.71 -2191.14)"/><text class="cls-3" transform="translate(185.72 234.08)">Mon</text><text class="cls-3" transform="translate(248.63 234.08)"><tspan class="cls-4">T</tspan><tspan x="6.44" y="0">ue</tspan></text><text class="cls-3" transform="translate(310.06 234.08)"><tspan class="cls-5">W</tspan><tspan x="10.39" y="0">ed</tspan></text><text class="cls-3" transform="translate(373.4 234.08)">Thu</text><text class="cls-3" transform="translate(436.31 234.08)">Fri</text><text class="cls-3" transform="translate(497.45 234.08)">Sat</text><text class="cls-6" transform="translate(121.37 194.97)">20 %</text><text class="cls-6" transform="translate(121.37 162.11)">40 %</text><text class="cls-6" transform="translate(121.37 129.99)">60 %</text><text class="cls-6" transform="translate(121.37 97.28)">80 %</text><text class="cls-6" transform="translate(116.37 65.61)">100 %</text><text class="cls-6" transform="translate(120.37 211.04)">10 % </text><text class="cls-6" transform="translate(121.37 177.61)">30 %</text><text class="cls-6" transform="translate(121.37 145.49)">50 %</text><text class="cls-6" transform="translate(121.37 113.35)">70 %</text><text class="cls-6" transform="translate(121.37 81.23)">90 %</text><line class="cls-7" x1="152.36" y1="206.38" x2="156.15" y2="206.38"/><line class="cls-8" x1="163.62" y1="206.38" x2="532.95" y2="206.38"/><line class="cls-7" x1="536.68" y1="206.38" x2="540.47" y2="206.38"/><line class="cls-7" x1="152.36" y1="174.04" x2="156.15" y2="174.04"/><line class="cls-8" x1="163.62" y1="174.04" x2="532.95" y2="174.04"/><line class="cls-7" x1="536.68" y1="174.04" x2="540.47" y2="174.04"/><line class="cls-7" x1="152.36" y1="141.7" x2="156.15" y2="141.7"/><line class="cls-8" x1="163.62" y1="141.7" x2="532.95" y2="141.7"/><line class="cls-7" x1="536.68" y1="141.7" x2="540.47" y2="141.7"/><line class="cls-7" x1="152.36" y1="109.36" x2="156.15" y2="109.36"/><line class="cls-8" x1="163.62" y1="109.36" x2="532.95" y2="109.36"/><line class="cls-7" x1="536.68" y1="109.36" x2="540.47" y2="109.36"/><line class="cls-7" x1="152.36" y1="77.02" x2="156.15" y2="77.02"/><line class="cls-8" x1="163.62" y1="77.02" x2="532.95" y2="77.02"/><line class="cls-7" x1="536.68" y1="77.02" x2="540.47" y2="77.02"/><polyline class="cls-2" points="540.99 218.13 155.54 218.13 155.54 38.26"/><line class="cls-7" x1="152.36" y1="190.96" x2="156.15" y2="190.96"/><line class="cls-8" x1="163.62" y1="190.96" x2="532.95" y2="190.96"/><line class="cls-7" x1="536.68" y1="190.96" x2="540.47" y2="190.96"/><line class="cls-7" x1="152.36" y1="158.62" x2="156.15" y2="158.62"/><line class="cls-8" x1="163.62" y1="158.62" x2="532.95" y2="158.62"/><line class="cls-7" x1="536.68" y1="158.62" x2="540.47" y2="158.62"/><line class="cls-7" x1="152.36" y1="126.27" x2="156.15" y2="126.27"/><line class="cls-8" x1="163.62" y1="126.27" x2="532.95" y2="126.27"/><line class="cls-7" x1="536.68" y1="126.27" x2="540.47" y2="126.27"/><line class="cls-7" x1="152.36" y1="93.93" x2="156.15" y2="93.93"/><line class="cls-8" x1="163.62" y1="93.93" x2="532.95" y2="93.93"/><line class="cls-7" x1="536.68" y1="93.93" x2="540.47" y2="93.93"/><line class="cls-7" x1="152.36" y1="61.59" x2="156.15" y2="61.59"/><line class="cls-8" x1="163.62" y1="61.59" x2="532.95" y2="61.59"/><line class="cls-7" x1="536.68" y1="61.59" x2="540.47" y2="61.59"/><rect class="cls-9" x="178.58" y="93.47" width="27.79" height="124.66"/><rect class="cls-10" x="242.28" y="89.15" width="27.79" height="128.98"/><rect class="cls-9" x="304.78" y="81.23" width="27.79" height="136.9"/><rect class="cls-10" x="367.38" y="113.35" width="27.79" height="104.79"/><rect class="cls-9" x="432.67" y="118.31" width="27.79" height="99.82"/><rect class="cls-10" x="489.87" y="129.99" width="27.79" height="88.15"/><path class="cls-10" d="M1159.41,2218.23c0,7.18-3.78,13-8.44,13h-76.61c-4.66,0-8.44-5.83-8.44-13h0c0-7.18,3.78-13,8.44-13H1151c4.66,0,8.44,5.82,8.44,13Z" transform="translate(-698.71 -2191.14)"/><text class="cls-11" transform="translate(382.72 32.25)"><tspan class="cls-12">W</tspan><tspan x="12.21" y="0">eek 26</tspan></text><polyline class="cls-13" points="451.3 25.77 447.13 29.93 442.96 25.77"/><path class="cls-14" d="M1278.59,2218.23c0,7.18-4.46,13-10,13h-90.34c-5.5,0-10-5.83-10-13h0c0-7.18,4.46-13,10-13h90.34c5.51,0,10,5.82,10,13Z" transform="translate(-698.71 -2191.14)"/><text class="cls-15" transform="translate(479.88 32.25)">V<tspan class="cls-16" x="8.56" y="0">iew </tspan><tspan class="cls-17" x="32.01" y="0">W</tspan><tspan class="cls-18" x="44.22" y="0">eekly</tspan></text><polyline class="cls-13" points="570.07 25.42 565.73 29.42 561.39 25.42"/><rect class="cls-14" y="247.12" width="671.34" height="31.23"/><text class="cls-19" transform="translate(224.28 268.12)">A<tspan class="cls-20" x="10.7" y="0">VG. MACHINE EFFICIENC</tspan><tspan class="cls-21" x="212.37" y="0">Y</tspan></text></g></svg>