<svg id="Dashboards" xmlns="http://www.w3.org/2000/svg" viewBox="0 0 388.15 309.25"><defs><style>.cls-1,.cls-6{fill:#fff;}.cls-2,.cls-4{fill:#4d4d4d;}.cls-3{fill:#ed1c24;}.cls-4{font-size:18px;font-family:Helvetica;}.cls-5{fill:red;}.cls-6{font-size:16.5px;font-family:Helvetica-Bold, Helvetica;font-weight:700;}</style></defs><title>Sensor Gauges</title><g id="Sensor_Gauges" data-name="Sensor Gauges"><rect class="cls-1" width="388.15" height="264.6"/><path class="cls-2" d="M129.91,2090.07h0a7.85,7.85,0,0,1-7.85-7.86V1934.78a7.85,7.85,0,0,1,7.85-7.86h0a7.86,7.86,0,0,1,7.86,7.86v147.43A7.86,7.86,0,0,1,129.91,2090.07Z" transform="translate(-80.55 -1876.2)"/><path class="cls-2" d="M129.91,2090.07h0a7.85,7.85,0,0,1-7.85-7.86V1934.78a7.85,7.85,0,0,1,7.85-7.86h0a7.86,7.86,0,0,1,7.86,7.86v147.43A7.86,7.86,0,0,1,129.91,2090.07Z" transform="translate(-80.55 -1876.2)"/><path class="cls-3" d="M129.91,2090.07h0a7.85,7.85,0,0,1-7.85-7.86v-95a7.85,7.85,0,0,1,7.85-7.86h0a7.86,7.86,0,0,1,7.86,7.86v95A7.86,7.86,0,0,1,129.91,2090.07Z" transform="translate(-80.55 -1876.2)"/><text class="cls-4" transform="translate(39.82 233.83)">S1</text><path class="cls-2" d="M161.33,2090.07h0a7.86,7.86,0,0,1-7.86-7.86V1934.78a7.86,7.86,0,0,1,7.86-7.86h0a7.85,7.85,0,0,1,7.85,7.86v147.43A7.85,7.85,0,0,1,161.33,2090.07Z" transform="translate(-80.55 -1876.2)"/><path class="cls-2" d="M161.33,2090.07h0a7.86,7.86,0,0,1-7.86-7.86V1934.78a7.86,7.86,0,0,1,7.86-7.86h0a7.85,7.85,0,0,1,7.85,7.86v147.43A7.85,7.85,0,0,1,161.33,2090.07Z" transform="translate(-80.55 -1876.2)"/><path class="cls-3" d="M161.33,2090.07h0a7.86,7.86,0,0,1-7.86-7.86v-125a7.85,7.85,0,0,1,7.86-7.85h0a7.84,7.84,0,0,1,7.85,7.85v125A7.85,7.85,0,0,1,161.33,2090.07Z" transform="translate(-80.55 -1876.2)"/><text class="cls-4" transform="translate(68.98 233.83)">S2</text><path class="cls-2" d="M192.74,2090.07h0a7.86,7.86,0,0,1-7.86-7.86V1934.78a7.86,7.86,0,0,1,7.86-7.86h0a7.86,7.86,0,0,1,7.86,7.86v147.43A7.86,7.86,0,0,1,192.74,2090.07Z" transform="translate(-80.55 -1876.2)"/><path class="cls-2" d="M192.74,2090.07h0a7.86,7.86,0,0,1-7.86-7.86V1934.78a7.86,7.86,0,0,1,7.86-7.86h0a7.86,7.86,0,0,1,7.86,7.86v147.43A7.86,7.86,0,0,1,192.74,2090.07Z" transform="translate(-80.55 -1876.2)"/><path class="cls-3" d="M192.74,2090.07h0a7.86,7.86,0,0,1-7.86-7.86v-72.59a7.86,7.86,0,0,1,7.86-7.86h0a7.86,7.86,0,0,1,7.86,7.86v72.59A7.86,7.86,0,0,1,192.74,2090.07Z" transform="translate(-80.55 -1876.2)"/><text class="cls-4" transform="translate(100.51 233.83)">S3</text><path class="cls-2" d="M224.15,2090.07h0a7.85,7.85,0,0,1-7.85-7.86V1934.78a7.85,7.85,0,0,1,7.85-7.86h0a7.86,7.86,0,0,1,7.86,7.86v147.43A7.86,7.86,0,0,1,224.15,2090.07Z" transform="translate(-80.55 -1876.2)"/><path class="cls-2" d="M224.15,2090.07h0a7.85,7.85,0,0,1-7.85-7.86V1934.78a7.85,7.85,0,0,1,7.85-7.86h0a7.86,7.86,0,0,1,7.86,7.86v147.43A7.86,7.86,0,0,1,224.15,2090.07Z" transform="translate(-80.55 -1876.2)"/><path class="cls-3" d="M224.15,2090.07h0c-4.34,0-7.85-2.92-7.85-6.52V1979.84c0-3.6,3.51-6.52,7.85-6.52h0c4.34,0,7.86,2.92,7.86,6.52v103.71C232,2087.15,228.49,2090.07,224.15,2090.07Z" transform="translate(-80.55 -1876.2)"/><text class="cls-4" transform="translate(131.56 233.83)">S4</text><path class="cls-2" d="M255.57,2090.07h0a7.86,7.86,0,0,1-7.86-7.86V1934.78a7.86,7.86,0,0,1,7.86-7.86h0a7.85,7.85,0,0,1,7.85,7.86v147.43A7.85,7.85,0,0,1,255.57,2090.07Z" transform="translate(-80.55 -1876.2)"/><path class="cls-2" d="M255.57,2090.07h0a7.86,7.86,0,0,1-7.86-7.86V1934.78a7.86,7.86,0,0,1,7.86-7.86h0a7.85,7.85,0,0,1,7.85,7.86v147.43A7.85,7.85,0,0,1,255.57,2090.07Z" transform="translate(-80.55 -1876.2)"/><path class="cls-3" d="M255.57,2090.07h0a7.86,7.86,0,0,1-7.86-7.86v-101a7.86,7.86,0,0,1,7.86-7.86h0a7.85,7.85,0,0,1,7.85,7.86v101A7.85,7.85,0,0,1,255.57,2090.07Z" transform="translate(-80.55 -1876.2)"/><text class="cls-4" transform="translate(164.45 233.83)">S5</text><path class="cls-2" d="M287,2090.07h0a7.86,7.86,0,0,1-7.86-7.86V1934.78a7.86,7.86,0,0,1,7.86-7.86h0a7.86,7.86,0,0,1,7.86,7.86v147.43A7.86,7.86,0,0,1,287,2090.07Z" transform="translate(-80.55 -1876.2)"/><path class="cls-2" d="M287,2090.07h0a7.86,7.86,0,0,1-7.86-7.86V1934.78a7.86,7.86,0,0,1,7.86-7.86h0a7.86,7.86,0,0,1,7.86,7.86v147.43A7.86,7.86,0,0,1,287,2090.07Z" transform="translate(-80.55 -1876.2)"/><path class="cls-3" d="M287,2090.07h0a7.86,7.86,0,0,1-7.86-7.86v-72.59a7.86,7.86,0,0,1,7.86-7.86h0a7.86,7.86,0,0,1,7.86,7.86v72.59A7.86,7.86,0,0,1,287,2090.07Z" transform="translate(-80.55 -1876.2)"/><text class="cls-4" transform="translate(194.58 233.83)">S6</text><path class="cls-2" d="M318.39,2090.07h0a7.85,7.85,0,0,1-7.85-7.86V1934.78a7.85,7.85,0,0,1,7.85-7.86h0a7.86,7.86,0,0,1,7.86,7.86v147.43A7.86,7.86,0,0,1,318.39,2090.07Z" transform="translate(-80.55 -1876.2)"/><path class="cls-2" d="M318.39,2090.07h0a7.85,7.85,0,0,1-7.85-7.86V1934.78a7.85,7.85,0,0,1,7.85-7.86h0a7.86,7.86,0,0,1,7.86,7.86v147.43A7.86,7.86,0,0,1,318.39,2090.07Z" transform="translate(-80.55 -1876.2)"/><path class="cls-3" d="M318.39,2090.07h0a7.85,7.85,0,0,1-7.85-7.86V1949.75a7.85,7.85,0,0,1,7.85-7.86h0a7.86,7.86,0,0,1,7.86,7.86v132.46A7.86,7.86,0,0,1,318.39,2090.07Z" transform="translate(-80.55 -1876.2)"/><text class="cls-4" transform="translate(225.95 233.83)">S7</text><path class="cls-2" d="M349.81,2090.07h0a7.86,7.86,0,0,1-7.86-7.86V1934.78a7.86,7.86,0,0,1,7.86-7.86h0a7.86,7.86,0,0,1,7.86,7.86v147.43A7.86,7.86,0,0,1,349.81,2090.07Z" transform="translate(-80.55 -1876.2)"/><path class="cls-2" d="M349.81,2090.07h0a7.86,7.86,0,0,1-7.86-7.86V1934.78a7.86,7.86,0,0,1,7.86-7.86h0a7.86,7.86,0,0,1,7.86,7.86v147.43A7.86,7.86,0,0,1,349.81,2090.07Z" transform="translate(-80.55 -1876.2)"/><path class="cls-3" d="M349.81,2090.07h0a7.86,7.86,0,0,1-7.86-7.86v-57.62a7.86,7.86,0,0,1,7.86-7.86h0a7.86,7.86,0,0,1,7.86,7.86v57.62A7.86,7.86,0,0,1,349.81,2090.07Z" transform="translate(-80.55 -1876.2)"/><text class="cls-4" transform="translate(256.65 233.83)">S8</text><path class="cls-2" d="M381.22,2090.07h0a7.86,7.86,0,0,1-7.86-7.86V1934.78a7.86,7.86,0,0,1,7.86-7.86h0a7.86,7.86,0,0,1,7.86,7.86v147.43A7.86,7.86,0,0,1,381.22,2090.07Z" transform="translate(-80.55 -1876.2)"/><path class="cls-2" d="M381.22,2090.07h0a7.86,7.86,0,0,1-7.86-7.86V1934.78a7.86,7.86,0,0,1,7.86-7.86h0a7.86,7.86,0,0,1,7.86,7.86v147.43A7.86,7.86,0,0,1,381.22,2090.07Z" transform="translate(-80.55 -1876.2)"/><path class="cls-3" d="M381.22,2090.07h0a7.86,7.86,0,0,1-7.86-7.86V2062a7.86,7.86,0,0,1,7.86-7.86h0a7.86,7.86,0,0,1,7.86,7.86v20.2A7.86,7.86,0,0,1,381.22,2090.07Z" transform="translate(-80.55 -1876.2)"/><text class="cls-4" transform="translate(287.88 233.83)">S9</text><path class="cls-2" d="M412.63,2090.07h0a7.85,7.85,0,0,1-7.85-7.86V1934.78a7.85,7.85,0,0,1,7.85-7.86h0a7.86,7.86,0,0,1,7.86,7.86v147.43A7.86,7.86,0,0,1,412.63,2090.07Z" transform="translate(-80.55 -1876.2)"/><path class="cls-2" d="M412.63,2090.07h0a7.85,7.85,0,0,1-7.85-7.86V1934.78a7.85,7.85,0,0,1,7.85-7.86h0a7.86,7.86,0,0,1,7.86,7.86v147.43A7.86,7.86,0,0,1,412.63,2090.07Z" transform="translate(-80.55 -1876.2)"/><path class="cls-3" d="M412.63,2090.07h0a7.85,7.85,0,0,1-7.85-7.86v-72.59a7.85,7.85,0,0,1,7.85-7.86h0a7.86,7.86,0,0,1,7.86,7.86v72.59A7.86,7.86,0,0,1,412.63,2090.07Z" transform="translate(-80.55 -1876.2)"/><text class="cls-4" transform="translate(316.22 233.83)">S10</text><rect class="cls-5" y="264.6" width="388.15" height="31.23"/><text class="cls-6" transform="translate(116.23 287.04)">SENSOR GAUGES</text></g></svg>