<svg xmlns="http://www.w3.org/2000/svg" viewBox="0 0 350.25 374.64"><defs><style>.cls-1{isolation:isolate;}.cls-2,.cls-8{fill:#fff;}.cls-3,.cls-5,.cls-6{fill:none;stroke-miterlimit:10;stroke-width:0.63px;}.cls-3{stroke:#9ba9b7;}.cls-4{font-size:11px;}.cls-10,.cls-16,.cls-4{fill:#4d4d4d;}.cls-14,.cls-15,.cls-4{font-family:Helvetica;}.cls-5,.cls-6{stroke:#ccc;}.cls-6{stroke-dasharray:7.44 7.44;}.cls-7{fill:red;}.cls-8{font-size:16.5px;}.cls-13,.cls-8{font-family:Helvetica-Bold, Helvetica;font-weight:700;}.cls-9{letter-spacing:-0.02em;}.cls-11,.cls-12{fill:#eb2c3b;}.cls-12,.cls-16{mix-blend-mode:multiply;}.cls-13{font-size:13.38px;fill:#333;}.cls-14,.cls-15{font-weight:400;}.cls-14{letter-spacing:0em;}</style></defs><title>Milestones</title><g class="cls-1"><g id="Dashboards"><g id="Status_2" data-name="Status 2"><rect class="cls-2" width="350.25" height="329.99"/><path class="cls-3" d="M830.43,1155.84" transform="translate(-780.48 -1147.37)"/><text class="cls-4" transform="translate(55.82 269.86)">10</text><text class="cls-4" transform="translate(81.08 269.86)">20</text><text class="cls-4" transform="translate(106.34 269.86)">30</text><text class="cls-4" transform="translate(131.6 269.86)">40</text><text class="cls-4" transform="translate(156.86 269.86)">50</text><text class="cls-4" transform="translate(182.13 269.86)">60</text><text class="cls-4" transform="translate(207.39 269.86)">70</text><text class="cls-4" transform="translate(232.65 269.86)">80</text><text class="cls-4" transform="translate(257.91 269.86)">90</text><text class="cls-4" transform="translate(280.11 269.86)">100</text><line class="cls-5" x1="43.31" y1="237.86" x2="47.1" y2="237.86"/><line class="cls-6" x1="54.54" y1="237.86" x2="288.75" y2="237.86"/><line class="cls-5" x1="292.47" y1="237.86" x2="296.26" y2="237.86"/><line class="cls-5" x1="43.31" y1="194.42" x2="47.1" y2="194.42"/><line class="cls-6" x1="54.54" y1="194.42" x2="288.75" y2="194.42"/><line class="cls-5" x1="292.47" y1="194.42" x2="296.26" y2="194.42"/><line class="cls-5" x1="43.31" y1="150.98" x2="47.1" y2="150.98"/><line class="cls-6" x1="54.54" y1="150.98" x2="288.75" y2="150.98"/><line class="cls-5" x1="292.47" y1="150.98" x2="296.26" y2="150.98"/><line class="cls-5" x1="43.31" y1="107.54" x2="47.1" y2="107.54"/><line class="cls-6" x1="54.54" y1="107.54" x2="288.75" y2="107.54"/><line class="cls-5" x1="292.47" y1="107.54" x2="296.26" y2="107.54"/><line class="cls-5" x1="43.31" y1="64.1" x2="47.1" y2="64.1"/><line class="cls-6" x1="54.54" y1="64.1" x2="288.75" y2="64.1"/><line class="cls-5" x1="292.47" y1="64.1" x2="296.26" y2="64.1"/><polyline class="cls-3" points="296.6 253.64 45.38 253.64 45.38 12.04"/><line class="cls-5" x1="43.31" y1="217.14" x2="47.1" y2="217.14"/><line class="cls-6" x1="54.54" y1="217.14" x2="288.75" y2="217.14"/><line class="cls-5" x1="292.47" y1="217.14" x2="296.26" y2="217.14"/><line class="cls-5" x1="43.31" y1="173.7" x2="47.1" y2="173.7"/><line class="cls-6" x1="54.54" y1="173.7" x2="288.75" y2="173.7"/><line class="cls-5" x1="292.47" y1="173.7" x2="296.26" y2="173.7"/><line class="cls-5" x1="43.31" y1="130.26" x2="47.1" y2="130.26"/><line class="cls-6" x1="54.54" y1="130.26" x2="288.75" y2="130.26"/><line class="cls-5" x1="292.47" y1="130.26" x2="296.26" y2="130.26"/><line class="cls-5" x1="43.31" y1="86.82" x2="47.1" y2="86.82"/><line class="cls-6" x1="54.54" y1="86.82" x2="288.75" y2="86.82"/><line class="cls-5" x1="292.47" y1="86.82" x2="296.26" y2="86.82"/><line class="cls-5" x1="43.31" y1="43.38" x2="47.1" y2="43.38"/><line class="cls-6" x1="54.54" y1="43.38" x2="288.75" y2="43.38"/><line class="cls-5" x1="292.47" y1="43.38" x2="296.26" y2="43.38"/><rect class="cls-7" y="329.99" width="350.25" height="31.23"/><text class="cls-8" transform="translate(112.01 352.43)">% MILES<tspan class="cls-9" x="69.67" y="0">T</tspan><tspan x="79.46" y="0">ONES</tspan></text><rect class="cls-10" x="910.45" y="1222.74" width="24.2" height="193.39" transform="translate(1461.5 -750.49) rotate(90)"/><rect class="cls-11" x="903.41" y="1187.86" width="24.2" height="178.72" transform="translate(1412.25 -785.67) rotate(90)"/><rect class="cls-12" x="7.57" y="290.26" width="16.45" height="15.28"/><text class="cls-13" transform="translate(30.2 303.39)">% <tspan class="cls-14" x="15.61" y="0">target achieved</tspan></text><text class="cls-13" transform="translate(31.69 322.66)">%<tspan class="cls-15" x="11.9" y="0" xml:space="preserve"> shift time elapsed</tspan></text><rect class="cls-16" x="7.57" y="309.52" width="16.45" height="15.28"/></g></g></g></svg>