<svg xmlns="http://www.w3.org/2000/svg" viewBox="0 0 671.34 280.19"><defs><style>.cls-1{isolation:isolate;}.cls-11,.cls-2{fill:#fff;}.cls-16,.cls-3,.cls-5{fill:#4d4d4d;}.cls-12,.cls-4,.cls-6{fill:#eb2c3b;}.cls-4{stroke:#eb2c3b;stroke-miterlimit:10;stroke-width:5px;}.cls-5{font-size:28.95px;letter-spacing:0.01em;}.cls-14,.cls-17,.cls-18,.cls-5,.cls-9{font-family:Helvetica;}.cls-11,.cls-13,.cls-15,.cls-6,.cls-7{font-family:Helvetica-Bold, Helvetica;font-weight:700;}.cls-7{font-size:15.59px;}.cls-8{letter-spacing:-0.04em;}.cls-9{font-size:14px;}.cls-10{fill:red;}.cls-11{font-size:16.5px;}.cls-12,.cls-16{mix-blend-mode:multiply;}.cls-13{font-size:10.48px;}.cls-13,.cls-15{fill:#333;}.cls-14,.cls-17,.cls-18{font-weight:400;}.cls-15{font-size:10.6px;}.cls-17{letter-spacing:0em;}.cls-18{letter-spacing:0em;}</style></defs><title>Machine OEE KPI</title><g class="cls-1"><g id="Dashboards"><g id="KPI"><rect class="cls-2" width="671.34" height="246.7"/><path class="cls-3" d="M247.83,1317a67.57,67.57,0,1,1-67.56-67.56A67.64,67.64,0,0,1,247.83,1317Zm-120.69,0a53.13,53.13,0,1,0,53.13-53.12A53.19,53.19,0,0,0,127.14,1317Z" transform="translate(-87.91 -1199.01)"/><path class="cls-4" d="M183.57,1249.47v14.47a53.2,53.2,0,1,1-44.26,19.24c-3.39-3.45-6.73-6.94-10.1-10.41a67.52,67.52,0,1,0,54.36-23.3Z" transform="translate(-87.91 -1199.01)"/><text class="cls-5" transform="translate(73.61 129.94)">2/<tspan class="cls-6" x="25.01" y="0">8</tspan></text><path class="cls-3" d="M483.16,1317a67.57,67.57,0,1,1-67.57-67.56A67.64,67.64,0,0,1,483.16,1317Zm-120.69,0a53.12,53.12,0,1,0,53.12-53.12A53.18,53.18,0,0,0,362.47,1317Z" transform="translate(-87.91 -1199.01)"/><path class="cls-4" d="M418.89,1249.51V1264a53.11,53.11,0,1,1-55.07,41.11c-4.71-1-9.41-2.09-14.15-2.9a67.57,67.57,0,1,0,69.22-52.68Z" transform="translate(-87.91 -1199.01)"/><path class="cls-3" d="M719.35,1317a67.57,67.57,0,1,1-67.57-67.56A67.64,67.64,0,0,1,719.35,1317Zm-120.69,0a53.12,53.12,0,1,0,53.12-53.12A53.18,53.18,0,0,0,598.66,1317Z" transform="translate(-87.91 -1199.01)"/><path class="cls-4" d="M655.08,1249.47v14.47a53.16,53.16,0,1,1-50.26,28.22c-4.5-1.78-9-3.5-13.64-5a67.55,67.55,0,1,0,63.9-37.66Z" transform="translate(-87.91 -1199.01)"/><text class="cls-5" transform="translate(282.32 127.49)">44/<tspan class="cls-6" x="41.55" y="0">148</tspan></text><text class="cls-5" transform="translate(518.51 125.57)">52/<tspan class="cls-6" x="41.55" y="0">245</tspan></text><text class="cls-7" transform="translate(51.49 27.43)"><tspan class="cls-8">A</tspan><tspan x="10.69" y="0">vailability</tspan></text><text class="cls-7" transform="translate(280.02 27.43)">Performance</text><text class="cls-7" transform="translate(537.45 27.43)">Quality</text><text x="-87.91" y="-1199.01"/><text class="cls-9" transform="translate(145.78 186.55) scale(1.01 1)">80.00 %</text><text class="cls-9" transform="translate(375.45 186.55) scale(1.01 1)">77.08 %</text><text class="cls-9" transform="translate(613.09 186.55) scale(1.01 1)">82.49 %</text><rect class="cls-10" y="246.7" width="671.34" height="33.49"/><text class="cls-11" transform="translate(267.89 267.55)">MACHINE OEE KPI</text><rect class="cls-12" x="29.67" y="209.49" width="13.03" height="12.11"/><text class="cls-13" transform="translate(48.79 219.78)">PLANNED <tspan class="cls-14" x="53.57" y="0">stops</tspan></text><text class="cls-15" transform="translate(48.79 235.17)">UNPLANNED <tspan class="cls-14" x="69.5" y="0">stops</tspan></text><rect class="cls-16" x="29.67" y="224.76" width="13.03" height="12.11"/><rect class="cls-12" x="253.59" y="207.91" width="13.03" height="12.11"/><text class="cls-13" transform="translate(272.71 218.2)">PERFECT <tspan class="cls-14" x="51.83" y="0">runs</tspan></text><text class="cls-15" transform="translate(272.71 233.59)">SLOW CYCLE <tspan class="cls-17" x="73.62" y="0">runs</tspan></text><rect class="cls-16" x="253.59" y="223.18" width="13.03" height="12.11"/><rect class="cls-12" x="486.64" y="207.91" width="13.03" height="12.11"/><text class="cls-13" transform="translate(505.76 218.2)">OK <tspan class="cls-18" x="18.63" y="0">first time right</tspan></text><text class="cls-15" transform="translate(505.76 233.59)">REWORK <tspan class="cls-14" x="51.24" y="0">OK</tspan></text><rect class="cls-16" x="486.64" y="223.18" width="13.03" height="12.11"/></g></g></g></svg>