<svg xmlns="http://www.w3.org/2000/svg" viewBox="0 0 350.25 374.64"><defs><style>.cls-1{isolation:isolate;}.cls-13,.cls-2{fill:#fff;}.cls-3,.cls-5,.cls-7{fill:#eb2c3b;}.cls-11,.cls-4,.cls-6{fill:#4d4d4d;}.cls-5{font-size:71px;}.cls-10,.cls-5,.cls-9{font-family:Helvetica;}.cls-13,.cls-6,.cls-8{font-family:Helvetica-Bold, Helvetica;font-weight:700;}.cls-11,.cls-7{mix-blend-mode:multiply;}.cls-8{font-size:13.38px;fill:#333;}.cls-10,.cls-9{font-weight:400;}.cls-9{letter-spacing:0em;}.cls-12{fill:red;}.cls-13{font-size:16.5px;}.cls-14{letter-spacing:-0.02em;}</style></defs><title>Machine Productivity</title><g class="cls-1"><g id="Dashboards"><g id="Productivity"><rect class="cls-2" width="350.25" height="329.99"/><path class="cls-3" d="M976.81,66a99.4,99.4,0,0,1,93.49,133.22L1094.71,211A126.37,126.37,0,0,0,976.81,38.94l-1.2,0V66C976,66,976.41,66,976.81,66Z" transform="translate(-784.29 -20.6)"/><path class="cls-3" d="M1094.71,211l-24.41-11.81a99.38,99.38,0,0,1-140.84,53.59l-11.39,24.53A126.31,126.31,0,0,0,1094.71,211Z" transform="translate(-784.29 -20.6)"/><path class="cls-4" d="M967.31,30.74C894,31.43,834.42,91.6,834.42,164.87a134,134,0,0,0,71.82,118.75l7.18,3.78L931.28,249l-6.37-3.46a91.78,91.78,0,0,1-48-80.62c0-49.95,40.63-91.07,90.58-91.67l7.63-.09V30.66Z" transform="translate(-784.29 -20.6)"/><text class="cls-5" transform="translate(126.21 167.8)">58<tspan class="cls-6" x="78.97" y="0">%</tspan></text><rect class="cls-7" x="7.57" y="283.87" width="16.45" height="15.28"/><text class="cls-8" transform="translate(30.2 297.01)">OK <tspan class="cls-9" x="23.79" y="0">quantity produced</tspan></text><text class="cls-8" transform="translate(31.69 316.27)">NOT OK <tspan class="cls-10" x="55.74" y="0">quantity produced</tspan></text><rect class="cls-11" x="7.57" y="303.13" width="16.45" height="15.28"/><rect class="cls-12" y="329.99" width="350.25" height="31.23"/><text class="cls-13" transform="translate(81.34 352.43) scale(0.92 1)">MACHINE PRODUCTIVIT<tspan class="cls-14" x="193.41" y="0">Y</tspan></text></g></g></g></svg>