<svg xmlns="http://www.w3.org/2000/svg" viewBox="0 0 971.16 425.51"><defs><style>.cls-1{isolation:isolate;}.cls-17,.cls-2,.cls-8{fill:#fff;}.cls-10,.cls-3,.cls-7{fill:none;stroke-miterlimit:10;}.cls-3{stroke:#dbdbdb;}.cls-3,.cls-7{stroke-width:0.25px;}.cls-4{fill:#65c8d0;opacity:0.2;}.cls-5{fill:red;}.cls-19,.cls-6,.cls-8{font-size:13.38px;}.cls-19,.cls-6{fill:#333;}.cls-24,.cls-6,.cls-8{font-family:Helvetica;}.cls-7{stroke:#2e2e2e;}.cls-9{letter-spacing:-0.02em;}.cls-10{stroke:#fff;}.cls-11{fill:#eb2c3b;}.cls-11,.cls-12,.cls-13{mix-blend-mode:multiply;}.cls-12,.cls-15{fill:#4d4d4d;}.cls-13{fill:#ff88be;}.cls-14{letter-spacing:-0.07em;}.cls-16{letter-spacing:-0.04em;}.cls-17{font-size:17.84px;}.cls-17,.cls-19{font-family:Helvetica-Bold, Helvetica;font-weight:700;}.cls-18{letter-spacing:-0.02em;}.cls-20{letter-spacing:-0.02em;}.cls-21{letter-spacing:-0.07em;}.cls-22{letter-spacing:-0.02em;}.cls-23{letter-spacing:0em;}.cls-24{font-weight:400;}</style></defs><title>Qty Produced vs Production Progress</title><g class="cls-1"><g id="Dashboards"><g id="Production_Progress" data-name="Production Progress"><rect class="cls-2" width="971.16" height="394.24"/><line class="cls-3" x1="501.59" y1="74.99" x2="950.77" y2="74.99"/><line class="cls-3" x1="501.59" y1="119.53" x2="950.77" y2="119.53"/><line class="cls-3" x1="501.59" y1="164.06" x2="950.77" y2="164.06"/><line class="cls-3" x1="501.59" y1="208.6" x2="950.77" y2="208.6"/><line class="cls-3" x1="501.59" y1="253.14" x2="950.77" y2="253.14"/><line class="cls-3" x1="501.59" y1="297.68" x2="950.77" y2="297.68"/><line class="cls-3" x1="613.89" y1="343.52" x2="613.89" y2="75.06"/><line class="cls-3" x1="726.18" y1="343.52" x2="726.18" y2="75.06"/><line class="cls-3" x1="838.47" y1="343.52" x2="838.47" y2="75.06"/><line class="cls-3" x1="950.77" y1="343.52" x2="950.77" y2="75.06"/><rect class="cls-4" x="613.89" y="74.99" width="112.29" height="268.54"/><rect class="cls-5" y="391.26" width="971.16" height="34.25"/><text class="cls-6" transform="translate(67.57 370.81)"><tspan xml:space="preserve"> 09:00 - 10:00 </tspan></text><line class="cls-3" x1="52.41" y1="74.99" x2="500.06" y2="74.99"/><line class="cls-3" x1="52.41" y1="119.53" x2="500.06" y2="119.53"/><line class="cls-3" x1="52.41" y1="164.06" x2="500.06" y2="164.06"/><line class="cls-3" x1="52.41" y1="208.6" x2="500.06" y2="208.6"/><line class="cls-3" x1="52.41" y1="253.14" x2="500.06" y2="253.14"/><line class="cls-3" x1="52.41" y1="297.68" x2="500.06" y2="297.68"/><line class="cls-3" x1="164.33" y1="343.52" x2="164.33" y2="75.06"/><line class="cls-3" x1="276.24" y1="343.52" x2="276.24" y2="75.06"/><line class="cls-3" x1="388.15" y1="343.52" x2="388.15" y2="75.06"/><line class="cls-3" x1="500.06" y1="343.52" x2="500.06" y2="75.06"/><polyline class="cls-7" points="52.41 75.06 52.41 343.52 950.77 343.52"/><path class="cls-5" d="M1066.11,429.67c0,7.59-4,13.73-8.92,13.73H976.33c-4.93,0-8.92-6.14-8.92-13.73h0c0-7.58,4-13.72,8.92-13.72h80.86c4.93,0,8.92,6.14,8.92,13.72Z" transform="translate(-115.34 -397.59)"/><text class="cls-8" transform="translate(862.48 36.75) scale(1.01 1)"><tspan class="cls-9">V</tspan><tspan x="8.69" y="0">iew Daily</tspan></text><polyline class="cls-10" points="940.84 30.8 936.44 35.2 932.04 30.8"/><rect class="cls-11" x="67.05" y="208.6" width="17.08" height="134.6"/><rect class="cls-12" x="91.22" y="297.68" width="17.08" height="45.52"/><rect class="cls-13" x="115.38" y="253.14" width="17.06" height="90.06"/><rect class="cls-11" x="180.58" y="119.2" width="17.09" height="224"/><rect class="cls-12" x="204.74" y="320.44" width="17.08" height="22.76"/><rect class="cls-13" x="228.91" y="172.59" width="17.05" height="170.61"/><rect class="cls-11" x="294.1" y="119.53" width="17.52" height="223.67"/><rect class="cls-12" x="318.27" y="209.29" width="17.08" height="133.91"/><rect class="cls-13" x="342.43" y="253.14" width="17.08" height="90.06"/><rect class="cls-11" x="51.62" y="11.85" width="16.45" height="15.28"/><rect class="cls-11" x="407.63" y="164.06" width="17.08" height="179.14"/><rect class="cls-12" x="431.79" y="253.14" width="17.08" height="90.06"/><rect class="cls-13" x="455.96" y="187.35" width="17.09" height="155.85"/><rect class="cls-11" x="531.51" y="164.06" width="17.52" height="178.97"/><rect class="cls-12" x="555.67" y="298.17" width="17.06" height="44.87"/><rect class="cls-13" x="579.84" y="208.6" width="17.06" height="134.44"/><rect class="cls-11" x="641.78" y="297.68" width="17.52" height="45.52"/><rect class="cls-12" x="665.94" y="331.82" width="17.02" height="11.38"/><rect class="cls-13" x="690.11" y="315.03" width="17.02" height="28.17"/><text class="cls-6" transform="translate(175.9 370.81)"><tspan xml:space="preserve"> 10:00 - </tspan><tspan class="cls-14" x="49.09" y="0">1</tspan><tspan x="55.54" y="0">1:00 </tspan></text><text class="cls-6" transform="translate(294.62 370.81)"> <tspan class="cls-14" x="3.72" y="0">1</tspan><tspan x="10.17" y="0">1:00 - 12:00 </tspan></text><text class="cls-6" transform="translate(404.9 370.81)"><tspan xml:space="preserve"> 12:00 - 13:00 </tspan></text><text class="cls-6" transform="translate(528.81 370.81)"><tspan xml:space="preserve"> 13:00 - 14:00 </tspan></text><text class="cls-6" transform="translate(636.94 370.81)"><tspan xml:space="preserve"> 14:00 - 15:00 </tspan></text><text class="cls-6" transform="translate(748.52 370.81)"><tspan xml:space="preserve"> 15:00 - 16:00 </tspan></text><text class="cls-6" transform="translate(861.44 370.81)"><tspan xml:space="preserve"> 16:00 - 17:00 </tspan></text><path class="cls-15" d="M952.59,429.67c0,7.59-4,13.73-8.92,13.73H862.81c-4.93,0-8.92-6.14-8.92-13.73h0c0-7.58,4-13.72,8.92-13.72h80.86c4.92,0,8.92,6.14,8.92,13.72Z" transform="translate(-115.34 -397.59)"/><text class="cls-8" transform="translate(750.96 36.64) scale(1.01 1)"><tspan class="cls-16">T</tspan><tspan x="7.68" y="0">uesday</tspan></text><polyline class="cls-10" points="827.32 30.69 822.92 35.09 818.52 30.69"/><text class="cls-6" transform="translate(27.24 296.68)">50 </text><text class="cls-6" transform="translate(19.8 251.65)">100 </text><text class="cls-6" transform="translate(19.8 207.11)">150 </text><text class="cls-6" transform="translate(19.8 162.08)">200 </text><text class="cls-6" transform="translate(19.8 118.6)">250 </text><text class="cls-17" transform="translate(265.72 415.45)">QUANTIT<tspan class="cls-18" x="79.27" y="0">Y</tspan><tspan x="90.86" y="0" xml:space="preserve"> PRODUCED : PRODUCTION PROGRESS</tspan></text><text class="cls-19" transform="translate(74.26 24.99)"><tspan class="cls-20">T</tspan><tspan x="7.94" y="0">O</tspan><tspan class="cls-21" x="18.34" y="0">T</tspan><tspan x="25.53" y="0">A</tspan><tspan class="cls-22" x="35.19" y="0">L</tspan><tspan class="cls-23" x="43.13" y="0"> </tspan><tspan class="cls-24" x="46.85" y="0">quantity produced</tspan></text><text class="cls-19" transform="translate(75.75 62.99)">OK<tspan class="cls-24" x="20.07" y="0" xml:space="preserve"> quantity produced</tspan></text><text class="cls-19" transform="translate(75.75 44.25)">NOT OK <tspan class="cls-24" x="55.74" y="0">quantity produced</tspan></text><rect class="cls-12" x="51.62" y="31.12" width="16.45" height="15.28"/><rect class="cls-13" x="51.62" y="49.86" width="16.45" height="15.28"/></g></g></g></svg>