<svg xmlns="http://www.w3.org/2000/svg" viewBox="0 0 561.06 311.58"><defs><style>.cls-1{isolation:isolate;}.cls-2,.cls-26{fill:#fff;}.cls-3{font-size:21px;}.cls-20,.cls-3,.cls-4{font-family:Helvetica;}.cls-4{font-size:18px;}.cls-5{letter-spacing:2.16em;}.cls-6{letter-spacing:3.91em;}.cls-7{letter-spacing:-0.07em;}.cls-8{letter-spacing:4.23em;}.cls-9{font-size:15px;fill:#4d4d4d;}.cls-10{letter-spacing:7.02em;}.cls-11{letter-spacing:3.36em;}.cls-12{letter-spacing:7.34em;}.cls-13{letter-spacing:2.52em;}.cls-14{letter-spacing:6.78em;}.cls-15{letter-spacing:4.41em;}.cls-16{letter-spacing:5.95em;}.cls-17{letter-spacing:3.08em;}.cls-18{fill:#ebf0f7;}.cls-19,.cls-21{fill:none;stroke-miterlimit:10;}.cls-19{stroke:#454545;stroke-linecap:round;stroke-width:0.5px;}.cls-20{font-size:14.42px;fill:#696969;}.cls-21{stroke:#dbdbdb;stroke-width:0.25px;}.cls-22,.cls-24{fill:#009245;}.cls-23{fill:#c1272d;}.cls-24{mix-blend-mode:multiply;}.cls-25{fill:red;}.cls-26{font-size:16.5px;font-family:Helvetica-Bold, Helvetica;font-weight:700;}.cls-27{letter-spacing:-0.07em;}.cls-28{letter-spacing:0em;}</style></defs><title>Sensor Values Table</title><g class="cls-1"><g id="Dashboards"><g id="Sensor_Values" data-name="Sensor Values"><rect class="cls-2" width="561.06" height="266.92"/><text class="cls-3" transform="translate(20.52 37.63)">Belt Grinder Sensors</text><text class="cls-4" transform="translate(43.56 93)">Sensor S#<tspan class="cls-5" x="84.05" y="0">	</tspan><tspan x="127.86" y="0">Description</tspan><tspan class="cls-6" x="217.9" y="0">	</tspan><tspan class="cls-7" x="293.25" y="0">V</tspan><tspan x="303.93" y="0">alue </tspan><tspan class="cls-8" x="342.96" y="0">	</tspan><tspan x="424.13" y="0">Units</tspan><tspan class="cls-9"><tspan x="0" y="33.27">S1</tspan><tspan class="cls-10" x="18.35" y="33.27">	</tspan><tspan x="127.86" y="33.27">Belt temperature</tspan><tspan class="cls-11" x="238.75" y="33.27">	</tspan><tspan x="293.25" y="33.27">85</tspan><tspan class="cls-12" x="309.94" y="33.27">	</tspan><tspan x="424.13" y="33.27" xml:space="preserve">    °C</tspan><tspan x="0" y="66.53">S2</tspan><tspan class="cls-10" x="18.35" y="66.53">	</tspan><tspan x="127.86" y="66.53">Motor temperature</tspan><tspan class="cls-13" x="251.25" y="66.53">	</tspan><tspan x="293.25" y="66.53">103</tspan><tspan class="cls-14" x="318.28" y="66.53">	</tspan><tspan x="424.13" y="66.53" xml:space="preserve">    °C</tspan><tspan x="0" y="99.8">S3</tspan><tspan class="cls-10" x="18.35" y="99.8">	</tspan><tspan x="127.86" y="99.8">Spindle speed</tspan><tspan class="cls-15" x="222.93" y="99.8">	</tspan><tspan x="293.25" y="99.8">3,600</tspan><tspan class="cls-16" x="330.78" y="99.8">	</tspan><tspan x="424.13" y="99.8" xml:space="preserve">    RPM</tspan><tspan x="0" y="133.07">S4</tspan><tspan class="cls-10" x="18.35" y="133.07">	</tspan><tspan x="127.86" y="133.07">Ambient humidity</tspan><tspan class="cls-17" x="242.91" y="133.07">	</tspan><tspan x="293.25" y="133.07">45</tspan><tspan class="cls-12" x="309.93" y="133.07">	</tspan><tspan x="424.13" y="133.07" xml:space="preserve">    % RH</tspan></tspan></text><path class="cls-18" d="M293.17,16H536a6.77,6.77,0,0,1,6.77,6.77V40A6.77,6.77,0,0,1,536,46.8H293.18A6.77,6.77,0,0,1,286.41,40V22.8A6.76,6.76,0,0,1,293.17,16Z"/><path class="cls-19" d="M1090.65,1893.94a7.33,7.33,0,1,1-7.33-7.33A7.33,7.33,0,0,1,1090.65,1893.94Z" transform="translate(-561.88 -1863.98)"/><line class="cls-19" x1="526.62" y1="35.14" x2="531.68" y2="40.21"/><text class="cls-20" transform="translate(301.12 35.66)">Search sensor</text><line class="cls-21" y1="59.48" x2="561.06" y2="59.48"/><circle class="cls-22" cx="392.33" cy="119.68" r="5.12"/><path class="cls-23" d="M959.33,2017.23a5.12,5.12,0,1,1-5.12-5.12A5.12,5.12,0,0,1,959.33,2017.23Z" transform="translate(-561.88 -1863.98)"/><path class="cls-24" d="M959.33,2050.81a5.12,5.12,0,1,1-5.12-5.12A5.12,5.12,0,0,1,959.33,2050.81Z" transform="translate(-561.88 -1863.98)"/><circle class="cls-24" cx="392.33" cy="220.41" r="5.12"/><rect class="cls-25" y="266.92" width="561.06" height="31.23"/><text class="cls-26" transform="translate(210.54 289.36)">SENSOR <tspan class="cls-27" x="74.27" y="0">V</tspan><tspan class="cls-28" x="84.06" y="0">ALUES</tspan></text></g></g></g></svg>