<svg xmlns="http://www.w3.org/2000/svg" viewBox="0 0 713.32 266.86"><defs><style>.cls-1{fill:#fff;}</style></defs><title>MINLoge WHITE</title><g id="M1"><polygon class="cls-1" points="134.86 133.43 0 266.86 0 0 134.86 133.43"/></g><g id="M2"><polygon class="cls-1" points="134.86 133.43 269.72 0 269.72 266.86 134.86 133.43"/></g><g id="I"><rect class="cls-1" x="287.03" y="0.37" width="65.97" height="266.12"/></g><g id="N"><polygon class="cls-1" points="418.97 266.12 418.97 108.04 536.05 266.86 418.97 266.12 418.97 266.12 418.97 266.12"/><polygon class="cls-1" points="536.05 0.37 536.05 160.29 417.35 0 536.05 0.37 536.05 0.37"/></g><g id="Labs"><path class="cls-1" d="M856.66,554.54H696.81a79.93,79.93,0,0,1,46.94-72.82V366.94h66V481.72A79.94,79.94,0,0,1,856.66,554.54Z" transform="translate(-143.34 -366.57)"/></g><g id="Water"><path class="cls-1" d="M765.5,553.34" transform="translate(-143.34 -366.57)"/><path class="cls-1" d="M856.66,553.34a79.93,79.93,0,1,1-159.85,0Z" transform="translate(-143.34 -366.57)"/></g></svg>