<svg id="Dashboards" xmlns="http://www.w3.org/2000/svg" viewBox="0 0 963.28 365.96"><defs><style>.cls-1,.cls-31,.cls-32,.cls-37{fill:#fff;}.cls-2{font-size:18px;}.cls-2,.cls-26,.cls-32{font-family:Helvetica;}.cls-3{letter-spacing:4.32em;}.cls-4{letter-spacing:6.8em;}.cls-5{letter-spacing:-0.04em;}.cls-6{letter-spacing:1.64em;}.cls-7{letter-spacing:1.38em;}.cls-8{letter-spacing:-0.02em;}.cls-9{letter-spacing:1.2em;}.cls-10{letter-spacing:-0.11em;}.cls-11{letter-spacing:2.9em;}.cls-12{letter-spacing:2.73em;}.cls-13{letter-spacing:3.28em;}.cls-14{font-size:15px;}.cls-14,.cls-35{fill:#4d4d4d;}.cls-15{letter-spacing:7.69em;}.cls-16{letter-spacing:0em;}.cls-17{letter-spacing:4.52em;}.cls-18{letter-spacing:-0.05em;}.cls-19{letter-spacing:3.67em;}.cls-20{letter-spacing:3.42em;}.cls-21{letter-spacing:3.44em;}.cls-22{letter-spacing:4em;}.cls-23{letter-spacing:2.88em;}.cls-24{fill:#ebf0f7;}.cls-25,.cls-29,.cls-34{fill:none;stroke-miterlimit:10;}.cls-25{stroke:#454545;stroke-linecap:round;stroke-width:0.5px;}.cls-26{font-size:14.42px;fill:#696969;}.cls-27{letter-spacing:-0.02em;}.cls-28{letter-spacing:-0.04em;}.cls-29{stroke:#dbdbdb;stroke-width:0.25px;}.cls-30{fill:red;}.cls-31{font-size:16.5px;}.cls-31,.cls-37{font-family:Helvetica-Bold, Helvetica;font-weight:700;}.cls-32{font-size:13.38px;}.cls-33{letter-spacing:-0.02em;}.cls-34{stroke:#fff;}.cls-36{letter-spacing:-0.04em;}.cls-37{font-size:14px;}</style></defs><title>Real Time Production Table</title><g id="Reale_Time_Production_Tracking" data-name="Reale Time Production Tracking"><rect class="cls-1" width="963.28" height="321.3"/><text class="cls-2" transform="translate(43.56 93)">S.No.<tspan class="cls-3" x="45.02" y="0">	</tspan><tspan x="127.86" y="0">Date</tspan><tspan class="cls-4" x="165.88" y="0">	</tspan><tspan class="cls-5" x="293.25" y="0">T</tspan><tspan x="303.59" y="0">ime Stamp</tspan><tspan class="cls-6" x="389.61" y="0">	</tspan><tspan x="424.13" y="0">OK Qty</tspan><tspan class="cls-7" x="483.14" y="0">	</tspan><tspan x="512.93" y="0">NO</tspan><tspan class="cls-8" x="539.93" y="0">T</tspan><tspan x="550.61" y="0" xml:space="preserve"> OK Qty</tspan><tspan class="cls-9" x="614.62" y="0">	</tspan><tspan class="cls-10" x="641.16" y="0">T</tspan><tspan x="650.16" y="0">otal Qty</tspan><tspan class="cls-11" x="712.19" y="0">	</tspan><tspan x="769.4" y="0" xml:space="preserve">  </tspan><tspan class="cls-12" x="779.4" y="0">	</tspan><tspan class="cls-13" x="833.51" y="0">	</tspan><tspan class="cls-14"><tspan x="0" y="33.27">1</tspan><tspan class="cls-15" x="8.34" y="33.27">	</tspan><tspan class="cls-16" x="127.86" y="33.27">19 - 06 - 2020</tspan><tspan class="cls-17" x="221.26" y="33.27">	</tspan><tspan x="293.25" y="33.27">08 : 00</tspan><tspan class="cls-18" x="339.12" y="33.27"> </tspan><tspan x="342.47" y="33.27">AM</tspan><tspan class="cls-19" x="364.97" y="33.27">	</tspan><tspan x="424.13" y="33.27" xml:space="preserve">    15</tspan><tspan class="cls-20" x="457.49" y="33.27">	</tspan><tspan x="512.93" y="33.27">2</tspan><tspan class="cls-21" x="521.27" y="33.27">	</tspan><tspan class="cls-22" x="577.04" y="33.27">	</tspan><tspan x="641.16" y="33.27">17</tspan><tspan x="0" y="66.53">2</tspan><tspan class="cls-15" x="8.34" y="66.53">	</tspan><tspan class="cls-16" x="127.86" y="66.53">19 - 06 - 2020</tspan><tspan class="cls-17" x="221.26" y="66.53">	</tspan><tspan x="293.25" y="66.53">08 : 10</tspan><tspan class="cls-18" x="339.12" y="66.53"> </tspan><tspan x="342.47" y="66.53">AM</tspan><tspan class="cls-19" x="364.97" y="66.53">	</tspan><tspan x="424.13" y="66.53" xml:space="preserve">    32</tspan><tspan class="cls-20" x="457.49" y="66.53">	</tspan><tspan x="512.93" y="66.53">5</tspan><tspan class="cls-21" x="521.27" y="66.53">	</tspan><tspan class="cls-22" x="577.04" y="66.53">	</tspan><tspan x="641.16" y="66.53">37</tspan><tspan x="0" y="99.8">3</tspan><tspan class="cls-15" x="8.34" y="99.8">	</tspan><tspan class="cls-16" x="127.86" y="99.8">19 - 06 - 2020</tspan><tspan class="cls-17" x="221.26" y="99.8">	</tspan><tspan x="293.25" y="99.8">08 : 20</tspan><tspan class="cls-18" x="339.12" y="99.8"> </tspan><tspan x="342.47" y="99.8">AM</tspan><tspan class="cls-19" x="364.97" y="99.8">	</tspan><tspan x="424.13" y="99.8" xml:space="preserve">    44</tspan><tspan class="cls-20" x="457.49" y="99.8">	</tspan><tspan x="512.93" y="99.8">5</tspan><tspan class="cls-21" x="521.27" y="99.8">	</tspan><tspan class="cls-22" x="577.04" y="99.8">	</tspan><tspan x="641.16" y="99.8">49</tspan><tspan x="0" y="133.07">4</tspan><tspan class="cls-15" x="8.34" y="133.07">	</tspan><tspan class="cls-16" x="127.86" y="133.07">19 - 06 - 2020</tspan><tspan class="cls-17" x="221.26" y="133.07">	</tspan><tspan x="293.25" y="133.07">08 : 30</tspan><tspan class="cls-18" x="339.12" y="133.07"> </tspan><tspan x="342.47" y="133.07">AM</tspan><tspan class="cls-19" x="364.97" y="133.07">	</tspan><tspan x="424.13" y="133.07" xml:space="preserve">    54</tspan><tspan class="cls-20" x="457.49" y="133.07">	</tspan><tspan x="512.93" y="133.07">8</tspan><tspan class="cls-21" x="521.27" y="133.07">	</tspan><tspan class="cls-22" x="577.04" y="133.07">	</tspan><tspan x="641.16" y="133.07">62</tspan><tspan x="0" y="166.33">5</tspan><tspan class="cls-15" x="8.34" y="166.33">	</tspan><tspan class="cls-16" x="127.86" y="166.33">19 - 06 - 2020</tspan><tspan class="cls-17" x="221.26" y="166.33">	</tspan><tspan x="293.25" y="166.33">08 : 40</tspan><tspan class="cls-18" x="339.12" y="166.33"> </tspan><tspan x="342.47" y="166.33">AM</tspan><tspan class="cls-19" x="364.97" y="166.33">	</tspan><tspan x="424.13" y="166.33" xml:space="preserve">    74</tspan><tspan class="cls-20" x="457.49" y="166.33">	</tspan><tspan x="512.93" y="166.33">8</tspan><tspan class="cls-21" x="521.27" y="166.33">	</tspan><tspan class="cls-22" x="577.04" y="166.33">	</tspan><tspan x="641.16" y="166.33">82</tspan><tspan class="cls-23" x="657.85" y="166.33">	</tspan><tspan x="0" y="199.6">6</tspan><tspan class="cls-15" x="8.34" y="199.6">	</tspan><tspan class="cls-16" x="127.86" y="199.6">19 - 06 - 2020</tspan><tspan class="cls-17" x="221.26" y="199.6">	</tspan><tspan x="293.25" y="199.6">08 : 50</tspan><tspan class="cls-18" x="339.12" y="199.6"> </tspan><tspan x="342.47" y="199.6">AM</tspan><tspan class="cls-19" x="364.97" y="199.6">	</tspan><tspan x="424.13" y="199.6" xml:space="preserve">    95</tspan><tspan class="cls-20" x="457.49" y="199.6">	</tspan><tspan x="512.93" y="199.6">8</tspan><tspan class="cls-21" x="521.27" y="199.6">	</tspan><tspan class="cls-22" x="577.04" y="199.6">	</tspan><tspan x="641.16" y="199.6">103</tspan></tspan></text><path class="cls-24" d="M749.53,1450.72a6.76,6.76,0,0,1-6.76,6.76H499.94a6.75,6.75,0,0,1-6.76-6.76V1433.5a6.76,6.76,0,0,1,6.76-6.77H742.77a6.77,6.77,0,0,1,6.76,6.77Z" transform="translate(-14.95 -1412.14)"/><path class="cls-25" d="M735.53,1440.65a7.33,7.33,0,1,1-7.33-7.33A7.33,7.33,0,0,1,735.53,1440.65Z" transform="translate(-14.95 -1412.14)"/><line class="cls-25" x1="718.44" y1="33.69" x2="723.5" y2="38.75"/><text class="cls-26" transform="translate(492.94 34.2)">Search<tspan class="cls-27" x="45.68" y="0"> </tspan><tspan class="cls-28" x="49.44" y="0">T</tspan><tspan x="57.72" y="0">ime Stamp</tspan></text><line class="cls-29" y1="59.48" x2="561.06" y2="59.48"/><rect class="cls-30" y="321.3" width="963.28" height="31.23"/><text class="cls-31" transform="translate(273.7 343.74)">REA<tspan class="cls-8" x="34.84" y="0">L</tspan><tspan x="44.63" y="0" xml:space="preserve"> TIME PRODUCTION TRACKING PER MACHINE</tspan></text><path class="cls-30" d="M954.49,1491.41c0,7.58-4,13.73-8.92,13.73H864.71c-4.93,0-8.92-6.15-8.92-13.73h0c0-7.58,4-13.73,8.92-13.73h80.86c4.92,0,8.92,6.15,8.92,13.73Z" transform="translate(-14.95 -1412.14)"/><text class="cls-32" transform="translate(851.25 83.94) scale(1.01 1)"><tspan class="cls-33">V</tspan><tspan x="8.69" y="0">iew Daily</tspan></text><polyline class="cls-34" points="929.61 77.99 925.21 82.38 920.81 77.99"/><path class="cls-35" d="M954.49,1455.83c0,7.58-4,13.73-8.92,13.73H864.71c-4.93,0-8.92-6.15-8.92-13.73h0c0-7.58,4-13.73,8.92-13.73h80.86c4.92,0,8.92,6.15,8.92,13.73Z" transform="translate(-14.95 -1412.14)"/><text class="cls-32" transform="translate(853.25 48.25) scale(1.01 1)"><tspan class="cls-36">T</tspan><tspan x="7.68" y="0">uesday</tspan></text><polyline class="cls-34" points="929.61 42.3 925.21 46.69 920.81 42.3"/><path class="cls-30" d="M286.89,1442.1c0,9-9.9,16.21-22.11,16.21H64.3c-12.21,0-22.11-7.25-22.11-16.21h0c0-8.95,9.9-16.2,22.11-16.2H264.78c12.21,0,22.11,7.25,22.11,16.2Z" transform="translate(-14.95 -1412.14)"/><text class="cls-37" transform="translate(48.65 36.15) scale(1.01 1)">Machine - 1: DMG Mori CNC</text><polyline class="cls-34" points="253.01 29.2 248.61 33.6 244.21 29.2"/></g></svg>