<svg id="Dashboards" xmlns="http://www.w3.org/2000/svg" viewBox="0 0 671.34 291.35"><defs><style>.cls-1,.cls-12{fill:#fff;}.cls-2,.cls-7,.cls-8,.cls-9{fill:none;}.cls-2{stroke:#9ba9b7;}.cls-10,.cls-2,.cls-7,.cls-8,.cls-9{stroke-miterlimit:10;}.cls-2,.cls-7,.cls-8{stroke-width:0.63px;}.cls-3,.cls-4{font-size:10.76px;}.cls-10,.cls-3,.cls-4,.cls-6{fill:#4d4d4d;}.cls-3,.cls-4,.cls-6{font-family:Helvetica;}.cls-4{letter-spacing:-0.07em;}.cls-5{letter-spacing:0em;}.cls-6{font-size:10.91px;}.cls-7,.cls-8{stroke:#ccc;}.cls-8{stroke-dasharray:7.71 7.71;}.cls-9{stroke:#eb2c3b;stroke-width:2px;}.cls-10{stroke:#4d4d4d;}.cls-11{fill:red;}.cls-12{font-size:16.5px;font-family:Helvetica-Bold, Helvetica;font-weight:700;}.cls-13{letter-spacing:-0.02em;}</style></defs><title>Real Time Plant OEE</title><g id="Status_2" data-name="Status 2"><rect class="cls-1" width="671.34" height="246.7"/><path class="cls-2" d="M140.29,690.89" transform="translate(-14.09 -681.69)"/><text class="cls-3" transform="matrix(0.81, -0.58, 0.58, 0.81, 134.31, 237.5)">08:00</text><text class="cls-4" transform="matrix(0.81, -0.58, 0.58, 0.81, 245.59, 237.27)">1<tspan class="cls-5" x="5.19" y="0">1:00</tspan></text><text class="cls-3" transform="matrix(0.81, -0.58, 0.58, 0.81, 282.04, 237.5)">12:00</text><text class="cls-3" transform="matrix(0.81, -0.58, 0.58, 0.81, 319.14, 237.5)">13:00</text><text class="cls-3" transform="matrix(0.81, -0.58, 0.58, 0.81, 356.23, 237.5)">14:00</text><text class="cls-3" transform="matrix(0.81, -0.58, 0.58, 0.81, 393.33, 237.5)">15:00</text><text class="cls-3" transform="matrix(0.81, -0.58, 0.58, 0.81, 430.42, 237.5)">16:00</text><text class="cls-3" transform="matrix(0.81, -0.58, 0.58, 0.81, 467.52, 237.5)">17:00</text><text class="cls-3" transform="matrix(0.81, -0.58, 0.58, 0.81, 504.61, 237.5)">18:00</text><text class="cls-3" transform="matrix(0.81, -0.58, 0.58, 0.81, 208.5, 237.5)">10:00</text><text class="cls-3" transform="matrix(0.81, -0.58, 0.58, 0.81, 171.4, 237.5)">09:00</text><text class="cls-6" transform="translate(88.51 186.49)">20 %</text><text class="cls-6" transform="translate(88.51 150.62)">40 %</text><text class="cls-6" transform="translate(88.51 114.5)">60 %</text><text class="cls-6" transform="translate(88.51 78.8)">80 %</text><text class="cls-6" transform="translate(85.51 42.12)">100 %</text><text class="cls-6" transform="translate(87.51 203.55)">10 % </text><text class="cls-6" transform="translate(88.51 168.13)">30 %</text><text class="cls-6" transform="translate(88.51 131.01)">50 %</text><text class="cls-6" transform="translate(88.51 95.86)">70 %</text><text class="cls-6" transform="translate(88.51 59.75)">90 %</text><line class="cls-7" x1="120.7" y1="199.04" x2="124.49" y2="199.04"/><line class="cls-8" x1="132.2" y1="199.04" x2="544.48" y2="199.04"/><line class="cls-7" x1="548.34" y1="199.04" x2="552.13" y2="199.04"/><line class="cls-7" x1="120.7" y1="163.09" x2="124.49" y2="163.09"/><line class="cls-8" x1="132.2" y1="163.09" x2="544.48" y2="163.09"/><line class="cls-7" x1="548.34" y1="163.09" x2="552.13" y2="163.09"/><line class="cls-7" x1="120.7" y1="127.14" x2="124.49" y2="127.14"/><line class="cls-8" x1="132.2" y1="127.14" x2="544.48" y2="127.14"/><line class="cls-7" x1="548.34" y1="127.14" x2="552.13" y2="127.14"/><line class="cls-7" x1="120.7" y1="91.18" x2="124.49" y2="91.18"/><line class="cls-8" x1="132.2" y1="91.18" x2="544.48" y2="91.18"/><line class="cls-7" x1="548.34" y1="91.18" x2="552.13" y2="91.18"/><line class="cls-7" x1="120.7" y1="55.23" x2="124.49" y2="55.23"/><line class="cls-8" x1="132.2" y1="55.23" x2="544.48" y2="55.23"/><line class="cls-7" x1="548.34" y1="55.23" x2="552.13" y2="55.23"/><polyline class="cls-2" points="552.7 212.1 124.23 212.1 124.23 12.15"/><line class="cls-7" x1="120.7" y1="181.89" x2="124.49" y2="181.89"/><line class="cls-8" x1="132.2" y1="181.89" x2="544.48" y2="181.89"/><line class="cls-7" x1="548.34" y1="181.89" x2="552.13" y2="181.89"/><line class="cls-7" x1="120.7" y1="145.94" x2="124.49" y2="145.94"/><line class="cls-8" x1="132.2" y1="145.94" x2="544.48" y2="145.94"/><line class="cls-7" x1="548.34" y1="145.94" x2="552.13" y2="145.94"/><line class="cls-7" x1="120.7" y1="109.99" x2="124.49" y2="109.99"/><line class="cls-8" x1="132.2" y1="109.99" x2="544.48" y2="109.99"/><line class="cls-7" x1="548.34" y1="109.99" x2="552.13" y2="109.99"/><line class="cls-7" x1="120.7" y1="74.04" x2="124.49" y2="74.04"/><line class="cls-8" x1="132.2" y1="74.04" x2="544.48" y2="74.04"/><line class="cls-7" x1="548.34" y1="74.04" x2="552.13" y2="74.04"/><line class="cls-7" x1="120.7" y1="38.08" x2="124.49" y2="38.08"/><line class="cls-8" x1="132.2" y1="38.08" x2="544.48" y2="38.08"/><line class="cls-7" x1="548.34" y1="38.08" x2="552.13" y2="38.08"/><polyline class="cls-9" points="124.23 113.81 159.55 103.3 192.28 110.83 217.36 119.32 264.64 110.23 294.99 119.97 328.03 116.11"/><circle class="cls-10" cx="159.55" cy="103.3" r="2.3"/><path class="cls-10" d="M208.67,792.52a2.3,2.3,0,1,1-2.29-2.3A2.3,2.3,0,0,1,208.67,792.52Z" transform="translate(-14.09 -681.69)"/><path class="cls-10" d="M281,791.92a2.3,2.3,0,1,1-2.29-2.3A2.3,2.3,0,0,1,281,791.92Z" transform="translate(-14.09 -681.69)"/><path class="cls-10" d="M344.42,797.8a2.3,2.3,0,1,1-2.3-2.3A2.3,2.3,0,0,1,344.42,797.8Z" transform="translate(-14.09 -681.69)"/><path class="cls-10" d="M236.06,801a2.3,2.3,0,1,1-2.3-2.3A2.29,2.29,0,0,1,236.06,801Z" transform="translate(-14.09 -681.69)"/><path class="cls-10" d="M313.69,801.66a2.3,2.3,0,1,1-2.3-2.3A2.3,2.3,0,0,1,313.69,801.66Z" transform="translate(-14.09 -681.69)"/><rect class="cls-11" y="246.7" width="671.34" height="31.23"/><text class="cls-12" transform="translate(225.32 269.14)">REA<tspan class="cls-13" x="34.84" y="0">L</tspan><tspan x="44.63" y="0" xml:space="preserve"> TIME PLANT OEE</tspan></text></g></svg>